<svg width="222" height="142" viewBox="0 0 222 142" fill="none" xmlns="http://www.w3.org/2000/svg">
<g filter="url(#filter0_d_202_165)">
<path fill-rule="evenodd" clip-rule="evenodd" d="M4.53034 84.1793C16.9669 84.3096 28.5701 79.6745 36.3722 74.4366C45.2837 68.454 50.072 62.2481 55.7949 52.3297C60.791 43.6711 64.5779 34.1458 70.6155 25.5951C73.8567 21.0047 76.6752 17.9459 80.3715 14.4949C83.0429 12.0008 89.218 7.38346 92.5673 5.86176C92.5321 4.17969 91.3926 2.98621 90.4911 2.07606C89.3903 0.965056 88.2883 0.453297 86.6085 0.125069C86.3275 0.0701554 85.5716 0.0294403 84.4784 0H56.86C54.9979 0.0357042 53.5322 0.451421 52.435 1.23441C49.3201 3.45767 49.079 5.76341 49.0792 9.54618V45.0792L12.1278 45.075C10.1783 45.0667 9.15644 45.4024 7.8262 46.0768C5.45803 47.2772 4.08394 49.6921 4 52.5318V74.0714V81.7714C4.09104 82.7106 4.25369 83.5437 4.53034 84.1793Z" fill="#1376F8"/>
<path fill-rule="evenodd" clip-rule="evenodd" d="M4.53027 84.1793C4.83908 85.3917 6.10188 86.7794 7.05066 87.4613C8.19423 88.2832 9.78987 88.8292 11.6003 88.9221C15.3338 89.1138 19.6476 88.921 23.4458 88.921C31.3984 88.921 39.3611 88.8812 47.3125 88.9221C53.6188 88.9547 59.62 85.8183 64.2837 82.2049C69.1278 78.4516 71.6492 73.5952 73.8804 67.9359C74.4504 66.4898 74.9235 65.0395 75.3969 63.6189C75.9122 62.0729 76.4296 60.6865 76.9453 59.1567C77.6853 56.9618 79.4156 52.8788 80.6504 51.0174C81.0709 50.3835 81.3259 49.87 81.756 49.2944C82.2189 48.6747 82.5653 48.1775 83.0438 47.5768C87.5825 41.8787 92.4798 39.4573 92.7015 39.1903C93.0444 38.7777 92.8527 37.8041 92.8589 37.3374C92.9548 30.1749 92.6894 21.8658 92.8606 14.9465C92.8696 14.5776 92.884 14.7325 92.8919 14.2905L92.8537 10.2139C92.8635 9.54764 92.8629 8.98932 92.8658 8.22471C92.8688 7.43045 92.7782 6.16096 92.5673 5.86176C89.218 7.38346 83.0428 12.0008 80.3714 14.4949C76.6751 17.9459 73.8566 21.0047 70.6154 25.5951C64.5779 34.1458 60.7909 43.6711 55.7948 52.3296C50.0719 62.2481 45.2836 68.454 36.3722 74.4366C28.5701 79.6745 16.9668 84.3095 4.53027 84.1793Z" fill="url(#paint0_linear_202_165)"/>
<path fill-rule="evenodd" clip-rule="evenodd" d="M53.6461 133.293C54.1483 133.683 55.2582 133.893 56.6273 134H65.3429H83.9049H84.1352C86.4708 133.996 87.4559 133.903 89.0902 132.998C94.218 130.159 92.626 123.611 92.8429 117.492L92.8383 100.184C92.8468 99.6691 92.8468 98.6796 92.8383 98.1649L92.7439 94.1953L92.8464 90.1507C92.8339 89.8588 92.827 89.8859 92.8339 89.5687L92.9208 88.9211H98.0181H127.923C131.974 88.9211 133.631 88.7856 135.748 86.6686C137.825 84.5908 138 83.0019 138 79.0212V78.8771V54.8586C137.98 53.1538 137.95 51.9895 137.906 51.7141C137.847 51.3456 137.802 51.0032 137.716 50.6683C137.649 50.4085 137.626 50.3461 137.539 50.1354C137.353 49.6874 137.501 49.9776 137.293 49.6462C136.816 47.7606 134.518 46.015 132.682 45.4471C130.567 44.7927 126.906 45.0792 124.211 45.0792L93.2703 45.0752C92.6416 45.1441 92.3714 45.4609 91.9144 45.8407C90.6883 46.8598 89.3681 47.8535 88.4266 49.0706C87.101 50.7848 85.9833 51.6895 84.6695 54.1525C79.0538 64.6806 79.4929 73.2058 71.2195 82.5997C67.523 86.7972 61.7424 90.5002 56.4832 92.2593C54.7914 92.8251 51.1698 93.8708 49.0791 93.8708C49.0791 101.178 49.0791 108.485 49.0791 115.792C49.0791 119.323 48.9102 123.276 49.077 126.754C49.1572 128.426 49.7203 129.774 50.4659 130.846C51.0573 131.696 52.5309 133.193 53.6461 133.293Z" fill="url(#paint1_linear_202_165)"/>
</g>
<path d="M101.84 100.543C101.861 100.378 101.923 100.265 102.026 100.203C102.149 100.121 102.262 100.08 102.365 100.08C103.765 100.08 105.072 100.039 106.286 99.9565C107.521 99.8536 108.488 99.8021 109.188 99.8021C110.938 99.8021 112.399 99.9771 113.572 100.327C114.766 100.677 115.723 101.222 116.443 101.963C117.184 102.704 117.709 103.661 118.018 104.834C118.327 106.008 118.481 107.418 118.481 109.064C118.481 110.731 118.306 112.368 117.956 113.973C117.627 115.558 117.04 116.968 116.196 118.203C115.353 119.438 114.21 120.436 112.769 121.197C111.349 121.938 109.548 122.309 107.367 122.309C106.358 122.309 105.432 122.288 104.588 122.247C103.765 122.206 103.055 122.082 102.458 121.877C101.861 121.671 101.398 121.362 101.069 120.95C100.739 120.539 100.575 119.973 100.575 119.252C100.575 118.985 100.585 118.583 100.605 118.048C100.647 117.513 100.688 116.875 100.729 116.134C100.791 115.393 100.852 114.58 100.914 113.695C100.996 112.789 101.079 111.843 101.161 110.855C101.326 108.817 101.449 107.191 101.532 105.977C101.635 104.762 101.696 103.816 101.717 103.136C101.758 102.437 101.779 101.912 101.779 101.562C101.799 101.212 101.82 100.872 101.84 100.543ZM107.583 117.431C108.735 117.431 109.651 117.184 110.33 116.69C111.03 116.196 111.565 115.568 111.936 114.807C112.306 114.045 112.553 113.211 112.677 112.306C112.8 111.4 112.862 110.546 112.862 109.743C112.862 108.879 112.8 108.128 112.677 107.49C112.574 106.831 112.378 106.286 112.09 105.853C111.823 105.421 111.442 105.102 110.948 104.896C110.454 104.67 109.837 104.557 109.096 104.557C108.869 104.557 108.581 104.567 108.231 104.587C107.881 104.608 107.459 104.639 106.965 104.68C106.924 105.442 106.873 106.347 106.811 107.397C106.749 108.426 106.677 109.517 106.595 110.67C106.533 111.802 106.461 112.954 106.379 114.127C106.296 115.28 106.214 116.35 106.132 117.338C106.44 117.379 106.718 117.41 106.965 117.431C107.212 117.431 107.418 117.431 107.583 117.431ZM124.471 122C123.833 122 123.308 121.938 122.896 121.815C122.505 121.671 122.186 121.475 121.939 121.228C121.713 120.981 121.548 120.683 121.445 120.333C121.363 119.962 121.322 119.54 121.322 119.067C121.322 118.758 121.332 118.326 121.353 117.77C121.394 117.194 121.456 116.412 121.538 115.424C121.62 114.415 121.713 113.15 121.816 111.627C121.939 110.083 122.083 108.179 122.248 105.915C122.269 105.462 122.32 105.195 122.402 105.112C122.464 105.051 122.629 105.02 122.896 105.02H124.1C124.738 105.02 125.253 105.081 125.644 105.205C126.056 105.328 126.375 105.514 126.601 105.761C126.848 106.008 127.013 106.306 127.095 106.656C127.198 107.006 127.249 107.397 127.249 107.829C127.249 108.138 127.229 108.601 127.188 109.218C127.147 109.836 127.085 110.68 127.003 111.75C126.941 112.8 126.848 114.117 126.725 115.702C126.601 117.266 126.447 119.16 126.262 121.383C126.241 121.63 126.19 121.794 126.107 121.877C126.025 121.959 125.85 122 125.582 122H124.471ZM122.279 101.377C122.279 100.553 122.577 99.9051 123.174 99.4317C123.771 98.9583 124.574 98.7216 125.582 98.7216C126.467 98.7216 127.105 98.9068 127.496 99.2773C127.908 99.6272 128.114 100.101 128.114 100.697C128.114 101.459 127.826 102.097 127.249 102.612C126.694 103.106 125.87 103.353 124.78 103.353C123.112 103.353 122.279 102.694 122.279 101.377ZM140.533 118.357C140.018 119.283 139.39 119.973 138.649 120.425C137.908 120.858 136.982 121.074 135.871 121.074C135.027 121.074 134.255 120.94 133.555 120.672C132.856 120.405 132.259 119.983 131.765 119.407C131.271 118.83 130.88 118.11 130.592 117.246C130.324 116.36 130.19 115.311 130.19 114.096C130.19 113.109 130.293 112.069 130.499 110.978C130.705 109.867 131.075 108.848 131.61 107.922C132.166 106.996 132.917 106.234 133.864 105.637C134.811 105.02 136.025 104.711 137.507 104.711C138.125 104.711 138.649 104.783 139.082 104.927C139.534 105.051 139.915 105.226 140.224 105.452C140.553 105.678 140.811 105.946 140.996 106.255C141.202 106.563 141.356 106.893 141.459 107.243C141.459 107.263 141.459 107.191 141.459 107.026C141.479 106.841 141.5 106.635 141.521 106.409C141.541 106.183 141.552 105.966 141.552 105.761C141.572 105.534 141.582 105.39 141.582 105.328C141.603 105.123 141.737 105.02 141.984 105.02H143.404C144.474 105.02 145.246 105.246 145.719 105.699C146.213 106.131 146.46 106.965 146.46 108.2C146.46 108.364 146.45 108.745 146.429 109.342C146.409 109.918 146.368 110.618 146.306 111.441C146.265 112.265 146.203 113.181 146.121 114.189C146.038 115.177 145.946 116.175 145.843 117.184C145.74 118.192 145.627 119.16 145.503 120.086C145.38 121.012 145.246 121.825 145.102 122.525C144.958 123.225 144.711 123.904 144.361 124.562C144.011 125.221 143.517 125.808 142.879 126.322C142.241 126.837 141.418 127.248 140.409 127.557C139.421 127.866 138.207 128.02 136.766 128.02C135.675 128.02 134.718 127.917 133.895 127.712C133.092 127.506 132.423 127.228 131.888 126.878C131.353 126.549 130.941 126.168 130.653 125.736C130.386 125.303 130.252 124.871 130.252 124.439C130.252 124.048 130.334 123.708 130.499 123.42C130.664 123.132 130.88 122.895 131.147 122.71C131.415 122.525 131.703 122.381 132.012 122.278C132.341 122.196 132.65 122.154 132.938 122.154C133.288 122.154 133.545 122.257 133.71 122.463C133.874 122.669 134.06 122.895 134.265 123.142C134.471 123.41 134.759 123.647 135.13 123.852C135.5 124.058 136.077 124.161 136.859 124.161C138.217 124.161 139.164 123.657 139.699 122.648C140.255 121.66 140.533 120.23 140.533 118.357ZM137.939 116.968C138.68 116.968 139.257 116.793 139.668 116.443C140.1 116.093 140.43 115.671 140.656 115.177C140.883 114.683 141.027 114.168 141.088 113.633C141.15 113.098 141.181 112.635 141.181 112.244C141.181 111.009 140.986 110.134 140.594 109.62C140.224 109.085 139.658 108.817 138.896 108.817C138.135 108.817 137.538 109.023 137.106 109.435C136.674 109.846 136.344 110.34 136.118 110.917C135.912 111.472 135.778 112.038 135.716 112.615C135.655 113.17 135.624 113.602 135.624 113.911C135.624 114.94 135.799 115.712 136.149 116.227C136.499 116.721 137.095 116.968 137.939 116.968ZM152.833 122C152.195 122 151.67 121.938 151.259 121.815C150.868 121.671 150.549 121.475 150.302 121.228C150.075 120.981 149.911 120.683 149.808 120.333C149.725 119.962 149.684 119.54 149.684 119.067C149.684 118.758 149.695 118.326 149.715 117.77C149.756 117.194 149.818 116.412 149.9 115.424C149.983 114.415 150.075 113.15 150.178 111.627C150.302 110.083 150.446 108.179 150.61 105.915C150.631 105.462 150.682 105.195 150.765 105.112C150.827 105.051 150.991 105.02 151.259 105.02H152.463C153.101 105.02 153.615 105.081 154.006 105.205C154.418 105.328 154.737 105.514 154.964 105.761C155.211 106.008 155.375 106.306 155.458 106.656C155.56 107.006 155.612 107.397 155.612 107.829C155.612 108.138 155.591 108.601 155.55 109.218C155.509 109.836 155.447 110.68 155.365 111.75C155.303 112.8 155.211 114.117 155.087 115.702C154.964 117.266 154.809 119.16 154.624 121.383C154.603 121.63 154.552 121.794 154.47 121.877C154.387 121.959 154.212 122 153.945 122H152.833ZM150.641 101.377C150.641 100.553 150.94 99.9051 151.537 99.4317C152.133 98.9583 152.936 98.7216 153.945 98.7216C154.83 98.7216 155.468 98.9068 155.859 99.2773C156.271 99.6272 156.476 100.101 156.476 100.697C156.476 101.459 156.188 102.097 155.612 102.612C155.056 103.106 154.233 103.353 153.142 103.353C151.475 103.353 150.641 102.694 150.641 101.377ZM178.682 105.545C178.517 106.039 178.301 106.687 178.034 107.49C177.787 108.272 177.509 109.136 177.2 110.083C176.891 111.03 176.572 112.038 176.243 113.109C175.914 114.158 175.574 115.187 175.224 116.196C174.895 117.204 174.565 118.172 174.236 119.098C173.907 120.004 173.608 120.796 173.341 121.475C173.259 121.64 173.084 121.774 172.816 121.877C172.569 121.959 172.168 122 171.612 122C171.262 122 170.902 121.979 170.531 121.938C170.161 121.897 169.811 121.815 169.482 121.691C169.173 121.568 168.895 121.403 168.648 121.197C168.422 120.991 168.247 120.734 168.123 120.425C167.815 119.376 167.516 118.213 167.228 116.937C166.96 115.64 166.693 114.323 166.425 112.985C166.158 111.647 165.89 110.34 165.623 109.064C165.376 107.767 165.118 106.594 164.851 105.545C164.851 105.833 164.84 106.327 164.82 107.026C164.799 107.726 164.779 108.539 164.758 109.465C164.737 110.392 164.707 111.39 164.665 112.46C164.645 113.53 164.624 114.58 164.604 115.609C164.583 116.618 164.563 117.565 164.542 118.45C164.521 119.314 164.511 120.024 164.511 120.58C164.511 121.197 164.47 121.588 164.388 121.753C164.326 121.918 164.202 122 164.017 122H162.319C161.146 122 160.312 121.774 159.818 121.321C159.345 120.847 159.108 120.158 159.108 119.252C159.108 119.005 159.119 118.594 159.139 118.017C159.18 117.42 159.232 116.721 159.294 115.918C159.355 115.115 159.417 114.241 159.479 113.294C159.561 112.326 159.643 111.349 159.726 110.361C159.829 109.023 159.911 107.912 159.973 107.026C160.055 106.121 160.117 105.37 160.158 104.773C160.199 104.176 160.23 103.692 160.251 103.322C160.292 102.951 160.312 102.622 160.312 102.334C160.333 102.046 160.343 101.778 160.343 101.531C160.364 101.263 160.374 100.934 160.374 100.543C160.374 100.378 160.436 100.265 160.559 100.203C160.683 100.121 160.796 100.08 160.899 100.08H165.221C166.024 100.08 166.683 100.214 167.197 100.481C167.712 100.728 168.134 101.119 168.463 101.655C168.792 102.19 169.06 102.889 169.266 103.754C169.471 104.598 169.657 105.606 169.821 106.779C170.007 107.953 170.202 109.311 170.408 110.855C170.634 112.378 170.922 114.096 171.272 116.011C171.602 114.734 171.879 113.675 172.106 112.831C172.332 111.987 172.518 111.287 172.662 110.731C172.826 110.155 172.96 109.682 173.063 109.311C173.166 108.941 173.259 108.601 173.341 108.292C173.423 107.963 173.516 107.613 173.619 107.243C173.722 106.872 173.845 106.409 173.989 105.853C174.133 105.298 174.308 104.608 174.514 103.785C174.74 102.941 175.018 101.881 175.348 100.605C175.389 100.481 175.461 100.368 175.564 100.265C175.667 100.142 175.852 100.08 176.119 100.08H180.936C181.594 100.08 182.119 100.152 182.51 100.296C182.922 100.42 183.241 100.605 183.467 100.852C183.694 101.099 183.848 101.408 183.93 101.778C184.013 102.128 184.054 102.54 184.054 103.013C184.054 103.486 184.023 104.258 183.961 105.328C183.92 106.378 183.848 107.572 183.745 108.91C183.663 110.227 183.57 111.596 183.467 113.016C183.385 114.436 183.292 115.753 183.189 116.968C183.107 118.182 183.035 119.211 182.973 120.055C182.912 120.899 182.87 121.393 182.85 121.537C182.829 121.702 182.788 121.825 182.726 121.907C182.665 121.969 182.541 122 182.356 122H180.658C179.485 122 178.651 121.774 178.157 121.321C177.684 120.847 177.447 120.24 177.447 119.499C177.447 119.273 177.468 118.861 177.509 118.264C177.57 117.667 177.643 116.968 177.725 116.165C177.807 115.362 177.9 114.488 178.003 113.541C178.106 112.573 178.198 111.616 178.281 110.67C178.363 109.723 178.435 108.807 178.497 107.922C178.579 107.016 178.641 106.224 178.682 105.545ZM194.283 122.309C193.377 122.309 192.472 122.196 191.566 121.969C190.681 121.743 189.878 121.352 189.158 120.796C188.458 120.24 187.882 119.499 187.429 118.573C186.976 117.647 186.75 116.484 186.75 115.084C186.75 114.57 186.791 113.952 186.873 113.232C186.956 112.512 187.11 111.771 187.336 111.009C187.583 110.248 187.913 109.496 188.324 108.755C188.756 107.994 189.312 107.315 189.991 106.718C190.671 106.121 191.494 105.637 192.461 105.267C193.429 104.896 194.581 104.711 195.919 104.711C196.989 104.711 197.895 104.834 198.636 105.081C199.377 105.328 199.974 105.668 200.427 106.1C200.879 106.512 201.209 106.996 201.414 107.551C201.62 108.107 201.723 108.704 201.723 109.342C201.723 110.289 201.528 111.091 201.137 111.75C200.766 112.409 200.272 112.964 199.655 113.417C199.058 113.849 198.389 114.189 197.648 114.436C196.907 114.683 196.176 114.879 195.456 115.023C194.736 115.146 194.067 115.228 193.449 115.27C192.852 115.29 192.389 115.301 192.06 115.301C192.06 115.692 192.111 116.083 192.214 116.474C192.338 116.844 192.513 117.173 192.739 117.462C192.966 117.75 193.264 117.986 193.634 118.172C194.005 118.357 194.458 118.45 194.993 118.45C195.528 118.45 195.94 118.367 196.228 118.203C196.537 118.017 196.784 117.822 196.969 117.616C197.154 117.39 197.308 117.194 197.432 117.029C197.576 116.844 197.761 116.752 197.988 116.752C198.09 116.752 198.265 116.782 198.512 116.844C198.78 116.885 199.048 116.988 199.315 117.153C199.583 117.318 199.819 117.544 200.025 117.832C200.231 118.12 200.334 118.491 200.334 118.944C200.334 119.54 200.149 120.055 199.778 120.487C199.408 120.919 198.924 121.269 198.327 121.537C197.751 121.804 197.103 122 196.382 122.123C195.662 122.247 194.962 122.309 194.283 122.309ZM194.869 108.817C194.417 108.817 194.025 108.951 193.696 109.218C193.387 109.465 193.12 109.784 192.893 110.176C192.688 110.567 192.523 110.999 192.4 111.472C192.297 111.946 192.214 112.398 192.153 112.831C193.429 112.81 194.458 112.594 195.24 112.182C196.043 111.771 196.444 111.184 196.444 110.423C196.444 110.011 196.31 109.64 196.043 109.311C195.796 108.982 195.405 108.817 194.869 108.817ZM209.696 122.309C208.893 122.309 208.121 122.165 207.38 121.877C206.66 121.588 206.022 121.136 205.466 120.518C204.931 119.901 204.499 119.118 204.169 118.172C203.86 117.225 203.706 116.083 203.706 114.745C203.706 114.148 203.747 113.489 203.83 112.769C203.912 112.028 204.056 111.287 204.262 110.546C204.468 109.805 204.756 109.085 205.126 108.385C205.497 107.685 205.96 107.068 206.516 106.533C207.092 105.977 207.771 105.534 208.553 105.205C209.356 104.876 210.292 104.711 211.363 104.711C212.392 104.711 213.215 104.896 213.833 105.267C214.471 105.617 214.872 106.234 215.037 107.119C215.078 106.316 215.119 105.617 215.16 105.02C215.201 104.423 215.232 103.867 215.253 103.353C215.294 102.838 215.335 102.323 215.376 101.809C215.417 101.294 215.459 100.708 215.5 100.049C215.52 99.5963 215.572 99.3287 215.654 99.2464C215.695 99.2053 215.747 99.1847 215.808 99.1847C215.87 99.1641 215.983 99.1538 216.148 99.1538H217.352C217.97 99.1538 218.484 99.2258 218.896 99.3699C219.307 99.514 219.637 99.7095 219.884 99.9565C220.131 100.203 220.306 100.492 220.409 100.821C220.511 101.13 220.563 101.459 220.563 101.809C220.563 101.809 220.542 102.066 220.501 102.581C220.46 103.095 220.409 103.785 220.347 104.649C220.285 105.493 220.213 106.46 220.131 107.551C220.048 108.642 219.966 109.774 219.884 110.947C219.801 112.1 219.719 113.253 219.637 114.405C219.554 115.537 219.472 116.587 219.39 117.554C219.307 118.501 219.235 119.324 219.174 120.024C219.132 120.703 219.102 121.156 219.081 121.383C219.04 121.63 218.988 121.794 218.927 121.877C218.865 121.959 218.69 122 218.402 122H217.29C216.858 122 216.446 121.969 216.055 121.907C215.685 121.825 215.356 121.702 215.067 121.537C214.8 121.352 214.584 121.115 214.419 120.827C214.275 120.518 214.203 120.127 214.203 119.654C213.833 120.436 213.267 121.074 212.505 121.568C211.764 122.062 210.828 122.309 209.696 122.309ZM212.381 108.817C211.332 108.817 210.55 109.28 210.035 110.206C209.541 111.112 209.294 112.337 209.294 113.88C209.294 114.415 209.325 114.94 209.387 115.455C209.469 115.969 209.603 116.433 209.788 116.844C209.973 117.256 210.22 117.585 210.529 117.832C210.858 118.079 211.27 118.203 211.764 118.203C212.649 118.203 213.39 117.77 213.987 116.906C214.584 116.041 214.882 114.683 214.882 112.831C214.882 112.316 214.851 111.822 214.79 111.349C214.728 110.855 214.604 110.423 214.419 110.052C214.234 109.682 213.977 109.383 213.647 109.157C213.318 108.93 212.896 108.817 212.381 108.817Z" fill="#1461F9"/>
<defs>
<filter id="filter0_d_202_165" x="0" y="0" width="142" height="142" filterUnits="userSpaceOnUse" color-interpolation-filters="sRGB">
<feFlood flood-opacity="0" result="BackgroundImageFix"/>
<feColorMatrix in="SourceAlpha" type="matrix" values="0 0 0 0 0 0 0 0 0 0 0 0 0 0 0 0 0 0 127 0" result="hardAlpha"/>
<feOffset dy="4"/>
<feGaussianBlur stdDeviation="2"/>
<feComposite in2="hardAlpha" operator="out"/>
<feColorMatrix type="matrix" values="0 0 0 0 0 0 0 0 0 0 0 0 0 0 0 0 0 0 0.25 0"/>
<feBlend mode="normal" in2="BackgroundImageFix" result="effect1_dropShadow_202_165"/>
<feBlend mode="normal" in="SourceGraphic" in2="effect1_dropShadow_202_165" result="shape"/>
</filter>
<linearGradient id="paint0_linear_202_165" x1="28.8598" y1="18.5069" x2="96.2576" y2="94.7438" gradientUnits="userSpaceOnUse">
<stop offset="0.0366465" stop-color="#1376F8"/>
<stop offset="1" stop-color="#1345F8"/>
</linearGradient>
<linearGradient id="paint1_linear_202_165" x1="57.3105" y1="53.3104" x2="110.069" y2="116.012" gradientUnits="userSpaceOnUse">
<stop stop-color="#0E8AA0"/>
<stop offset="1" stop-color="#00FFD1"/>
</linearGradient>
</defs>
</svg>
